<?xml version="1.0" standalone="no"?><!DOCTYPE svg PUBLIC "-//W3C//DTD SVG 1.1//EN" "http://www.w3.org/Graphics/SVG/1.1/DTD/svg11.dtd"><svg t="1740744012448" class="icon" viewBox="0 0 1024 1024" version="1.1" xmlns="http://www.w3.org/2000/svg" p-id="3191" xmlns:xlink="http://www.w3.org/1999/xlink" width="256" height="256"><path d="M390.603139 359.586728c-23.678282 6.510274-80.33056 38.588877-108.711957 71.883167-1.556449 1.827625-1.143033 2.275833 0.87288 0.975211 5.850242-3.777023 17.522072-11.04352 25.581632-14.326287 2.219551-0.907673 5.389754 0.144286 7.513114 1.258667 12.892635 6.763031 51.748594 7.076162 53.248761-32.109302 0.091074-2.397606 1.633197-5.41943 3.629667-6.750751 1.102101-0.733711 2.487657-1.656733 4.203742-2.800789 1.99647-1.330298 4.369517-0.607844 4.946662 1.717108 2.338255 9.410324 1.36509 22.296819-3.594875 32.981159-1.011027 2.175549-0.229221 3.066849 1.852184 1.874697 18.669198-10.682293 23.119557-32.012088 16.281825-51.606355C395.636782 360.417653 392.917858 358.949208 390.603139 359.586728z" fill="#1296db" p-id="3192"></path><path d="M312.387753 525.468756c10.56359-26.527167 57.698097-62.993706 58.853409-91.067089 0.097214-2.397606-0.915859-2.515287-2.037403-0.39295-14.418384 27.270087-58.046021 39.372729-58.252729 91.236957C310.939775 527.647375 311.499523 527.700587 312.387753 525.468756z" fill="#1296db" p-id="3193"></path><path d="M276.692786 455.024357c-28.91761 2.945075-78.357626 38.367843-82.595136 103.566774-0.155543 2.391467 0.438998 2.50096 1.285273 0.25378 18.583241-49.221028 52.30118-90.434685 81.573877-102.513792C279.173281 455.414237 279.079136 454.782857 276.692786 455.024357z" fill="#1296db" p-id="3194"></path><path d="M87.058798 608.113011c-0.089028 2.397606 1.49812 2.889817 3.523243 1.601474 14.627139-9.293667 30.433126 12.955056 28.930913 40.310078-0.132006 2.397606 0.550539 2.617617 1.565658 0.445138 15.481599-33.084513 0.913812-60.928674-10.998495-62.297858C100.030228 587.005274 87.60729 593.164554 87.058798 608.113011z" fill="#1296db" p-id="3195"></path><path d="M171.815157 670.508084c2.759857-15.826454 22.449291-47.001477 45.689598-64.567551 1.913583-1.447978 1.697665-1.874697-0.521886-0.959861-41.699728 17.164938-53.676503 50.901297-47.628764 66.103534C170.240289 673.313989 171.404812 672.871921 171.815157 670.508084z" fill="#1296db" p-id="3196"></path><path d="M425.943019 257.496585c8.489348-2.90926 25.89067-5.561669 38.696324-4.938476 2.394537 0.112564 4.508687-1.576915 4.570085-3.975545 0.695848-27.369348-12.930497-69.756737-32.193213-84.667332-1.896186-1.470491-2.788509-0.64366-2.172479 1.677199 6.070252 22.861684-17.775852 48.139393-13.407358 89.370447C421.691181 257.347183 423.672302 258.275321 425.943019 257.496585z" fill="#1296db" p-id="3197"></path><path d="M577.633836 258.585383c3.538593-34.860972 44.957935-81.152275 85.494163-84.302011 2.394537-0.185218 2.532683 0.603751 0.613984 2.046612-6.742565 5.062296-9.506515 13.597693-10.600429 18.73162-0.50142 2.346441 0.551562 2.75474 2.441609 1.279133 5.375427-4.194532 13.892405-7.506974 18.935258-9.240455 2.272763-0.777713 2.795673 0.088004 1.288343 1.954515-17.596773 21.838378-19.343557 55.094806-19.374256 66.900689-0.00307 2.402723 0.969071 2.609431 2.143826 0.521886 34.887578-61.60508 96.580662-30.652114 121.216759-28.366048 2.388397 0.224104 3.207042 1.642406 1.583055 3.41068-9.096169 9.917884-22.452361 14.326287-32.238238 16.183588-2.357697 0.447185-2.642177 1.780553-0.332575 2.430352 9.168824 2.573615 26.981515 1.233084 39.199791-1.422396 2.344395-0.509606 2.714831 0.203638 0.730641 1.556449-29.464055 20.110013-72.218812 8.290827-95.758947 40.720424-1.411139 1.940189-0.569982 3.015683 1.74576 2.382257 58.909691-16.160051 93.850481 21.543665 102.735849 39.36352 1.069355 2.145873 0.376577 2.53166-1.542122 1.089821-7.839549-5.89322-17.847483-5.946432-23.445992-5.378497-2.388397 0.2415-2.373047 1.034563-0.127913 1.88493 9.225105 3.504824 18.304901 12.19781 22.540366 21.237697 1.019213 2.172479 0.220011 2.609431-1.739621 1.225921-14.014178-9.894348-41.929971-7.79657-57.574277 4.40431-1.893116 1.474584-1.447978 2.157129 0.849344 1.459235 23.471574-7.117095 47.133483 1.535983 54.618968 15.217586 7.942903 14.512529 6.589069 30.324656-11.456936 52.095495-1.529843 1.849114-1.215688 2.208295 0.727571 0.797156 81.255629-59.065234 14.048971-134.938272-15.910365-146.704247-2.234901-0.877997-2.241041-1.650593 0.094144-2.211365 58.890248-14.084787 85.903485-62.305021 87.73111-93.120864 0.144286-2.397606-1.075495-2.786463-2.602268-0.938372-49.449225 59.737546-116.963898-11.955286-166.002778 24.956392-1.918699 1.444908-3.012613 0.823761-2.373047-1.488911 16.010649-57.789171 110.174262-35.349089 102.924137-123.505895-0.197498-2.390443-1.078565-2.490727-1.946328-0.25071-23.675212 60.932768-64.799842 52.341089-128.805598 73.458035-63.150272 20.847817-79.823 61.158918-76.463486 101.637842C577.153906 260.991176 577.386196 260.97071 577.633836 258.585383z" fill="#1296db" p-id="3198"></path><path d="M817.889759 300.783461c18.22713 6.605442 27.260877 42.652426 50.249451 46.363957 2.373047 0.382717 3.382027 2.015913 1.908466 3.90903-6.970762 8.947789-17.007349 11.20111-24.90011 11.44568-2.397606 0.073678-2.795673 1.133823-0.74599 2.378164 24.421202 14.792914 55.521524 0.877997 65.837474-18.937305 1.106194-2.1295-0.062422-3.25002-2.382257-2.638083-37.44175 9.909697-48.607044-47.555086-89.88517-44.052309C815.580157 299.455209 815.633369 299.966862 817.889759 300.783461z" fill="#1296db" p-id="3199"></path><path d="M962.393897 500.005828c-87.803765 27.205619-92.103698-92.328825-134.880967-94.193289-2.397606-0.103354-2.412956 0.748037-0.451278 2.128477 2.369977 1.666966 3.761674 3.828188 4.544503 5.976108 0.821715 2.255367-0.76134 3.112897-3.046383 2.371-4.670369-1.512447-9.240455-0.661056-12.353352 0.37453-2.275833 0.760317-2.102894 2.293229 0.088004 3.278673 12.854772 5.786797 21.988804 18.736736 25.668613 29.055756 0.802272 2.261507-0.165776 2.734274-2.366907 1.775436-7.237845-3.157923-21.452591-3.476171-28.824489 5.41636-1.529843 1.848091-0.48914 3.031033 1.880837 2.674922 33.128515-4.990664 60.33618 51.039443 95.529727 58.84113 2.341325 0.520863 2.730181 1.871627 0.701988 3.15383-34.635845 21.800515-86.161359 1.294482-103.513562-11.162224-1.946328-1.399883-2.325975-1.081635-0.925069 0.865717 14.459317 20.076244 35.770691 33.376155 58.383712 39.108716 2.325975 0.586354 5.695722 2.269693 7.40669 3.949962 17.997909 17.684778 36.478819 50.138934 24.63405 97.018637-0.586354 2.329045-1.981121 2.447748-3.125177 0.338714-2.701528-4.974291-7.786337-13.553691-13.136182-18.371416-1.786693-1.604544-2.939959-0.683569-2.316765 1.633197 17.97028 66.714448-36.767392 86.176708-51.323922 126.934994-0.808412 2.25332-1.291412 2.187829-1.028423-0.197498 3.676739-33.244148 39.567157-65.5049-0.047072-127.746476-1.288343-2.022053-1.548262-1.874697-0.623193 0.338714 37.381375 89.248673-75.980485 148.149155 11.756765 233.501078 1.724271 1.677199 2.24411 1.279133 1.184989-0.877997-24.88783-50.421366-13.951757-88.295975 41.729403-138.741901 56.975643-51.597145 54.402027-124.402311 12.938684-171.368996-1.586125-1.802042-0.981351-3.200902 1.416256-3.300162 30.78719-1.323135 59.608609-17.271362 72.701812-50.072419C965.891558 500.479619 964.68201 499.29463 962.393897 500.005828z" fill="#1296db" p-id="3200"></path><path d="M677.128875 100.57565c5.607718 3.712555 10.419304 8.820899 9.096169 20.123316-0.279363 2.382257 0.475837 2.7486 1.648546 0.656963 11.80179-21.030989-2.216481-53.773717-31.752168-59.821457-2.351558-0.483001-3.065825 0.840134-1.727341 2.831488 19.778462 29.420053-11.82328 47.777143-25.981744 73.265654-1.162476 2.098801-0.49835 2.601244 1.388627 1.122567 18.21792-14.291494 33.238009-17.271362 41.970904-36.426631C672.77266 100.142791 675.129334 99.249445 677.128875 100.57565z" fill="#1296db" p-id="3201"></path><path d="M492.783333 950.146968c51.296293-83.161025 213.117842-152.064324 237.244332-228.909503 0.721431-2.291183-0.097214-2.714831-1.730411-0.959861-56.533574 60.83146-201.25363 111.353111-236.541321 229.426273C491.070318 952.002222 491.524666 952.190511 492.783333 950.146968z" fill="#1296db" p-id="3202"></path><path d="M745.664807 799.586904c-1.285273-3.246951-2.391467-8.41567-0.654916-14.939247 0.617054-2.315742-0.23536-3.062755-2.018983-1.454118-18.336624 16.502859-34.561144 69.551052-10.268878 111.12389 1.206478 2.072195 2.009773 1.768273 1.874697-0.630357-2.482541-44.418652 47.242977-91.846848 50.988278-139.91154 0.188288-2.391467-0.604774-2.576685-1.680269-0.429789-12.958126 25.831318-25.919323 33.081443-34.078143 46.267766C748.563834 801.656029 746.545874 801.815665 745.664807 799.586904z" fill="#1296db" p-id="3203"></path><path d="M557.469588 271.466762c-18.693758-26.801413-60.523445-18.163685-66.915016-31.400151-1.686409-3.497661-2.701528-12.43317-4.699022-24.153096-0.404206-2.367931-0.332575-6.186909 0.521886-8.428973 12.692067-33.29736 77.44893-46.836725 67.957765-98.887194-0.429789-2.361791 0.867764-3.449565 2.845815-2.091638 13.81668 9.484002 23.994484 34.220383 28.016077 60.20929 0.366344 2.371 0.968048 2.388397 1.319042 0.01535 10.174734-68.808132-45.744857-108.989273-71.41961-105.919355-2.38328 0.285502-2.353604 1.569752-0.162706 2.550079 15.167444 6.779404 23.239284 22.641673 23.239284 53.054333 0 28.859281-40.231283 48.012504-56.31254 66.802452-1.562589 1.822508-3.213181 1.570775-3.960195-0.710175-9.788947-29.881564-29.53671-62.271252-73.610508-74.235748-2.313695-0.62831-3.378957 0.697895-2.408863 2.892887 24.608467 55.595202-1.921769 67.714218-6.637164 109.331058-0.271176 2.38328-2.051729 3.287883-4.187369 2.194992-24.457018-12.523221-84.545558-22.482037-130.9791 30.708396-47.717791 54.670134-123.379005 59.303664-137.968282 10.404977-0.687662-2.299369-0.929162-2.270716-0.671289 0.115634 5.506411 50.539047 34.470069 60.908208 55.789631 60.908208 24.330128 0 53.781904-25.163099 79.0678-21.804608 2.37714 0.318248 2.720971-0.347924 0.617054-1.50426-4.77577-2.62785-13.928221-6.185886-25.515117-3.587712-2.340301 0.527003-2.535753 0.12996-0.713244-1.430582 21.184485-18.135032 86.822414-100.744495 158.033269-61.017702 2.096754 1.167592 3.623527 4.142343 3.576455 6.541997-0.067538 3.638877-0.002047 8.992815 0.717338 13.784958 0.354064 2.373047-1.061169 4.423753-3.437286 4.76656-70.742181 10.07445-118.193913 98.17702-181.841511 94.182033-2.394537-0.150426-3.1262-1.946328-1.728364-3.898797 3.496637-4.883217 9.540284-14.031575 11.805884-21.773909 0.672312-2.303462-0.576121-2.916423-2.482541-1.460258-22.76447 17.412578-106.623389 58.956763-66.901713 115.161856 1.384533 1.959631 2.228761 1.570775 1.860371-0.801249-8.91402-57.732889 39.413662-46.910403 100.296287-80.725556 2.098801-1.166569 2.524496-0.657986 1.067308 1.24741-2.560312 3.353374-6.307659 8.65717-8.353248 13.424754-0.948605 2.206248-3.095501 4.926196-5.121648 6.212492-14.997576 9.533121-30.256094 34.808784-13.9405 60.089563 1.299599 2.016937 0.86367 4.599761-1.116427 5.952572-55.006801 37.673018-70.25304 101.758592-110.139469 101.234659-2.399653-0.028653-6.037507 0.630357-8.128121 1.809205-13.291724 7.478322-33.727149 20.147876-38.624692 36.021401-0.707105 2.294252-2.830465 4.983501-4.307096 6.870478-3.954055 5.062296-4.076852 15.004739-1.367137 21.186532 5.218862 11.932774-5.477758 42.309618 34.538631 59.34562 2.208295 0.937348 4.706185 3.435239 5.64251 5.64558 5.124717 12.102642 13.895475 26.028816 24.584931 30.733978 10.366092 4.544503 23.264866 1.890047 32.706913-2.022053 2.217505-0.918929 5.290493-0.388856 7.077186 1.215688 9.372461 8.400321 30.798447 20.414959 87.895863-12.716626 2.075265-1.206478 5.64558-1.808182 8.013511-1.417279 13.05841 2.153036 40.505529 6.592139 38.0762 41.556465-0.167822 2.394537-1.785669 5.735631-3.708462 7.175423-18.283412 13.694907-54.846142 10.616802-25.733081 36.688597 1.786693 1.601474 1.49198 4.185322 1.379417 6.576789-0.286526 5.933129 8.093329 14.550391 19.529799 13.409404 14.291494-1.435699 16.192797-15.240099 50.948369-9.522887 34.131355 5.607718 68.719104-11.732206 68.62189-88.511893-0.004093-2.400676 0.38067-6.244214 1.073448-8.541537 13.476943-44.594661 65.722864-37.2156 92.110861-55.530734 1.972934-1.369184 4.891404-1.369184 6.516414 0.394996 17.174148 18.659989 26.088168 57.747215-12.604062 95.987145-40.300868 39.836287-160.364361 136.842645-171.000606 225.687112-0.285502 2.379187 0.327458 2.529613 1.299599 0.335644 72.372308-163.175383 274.490631-196.59861 197.529819-338.412476-1.144056-2.105964-0.931209-5.343705 0.483001-7.280824 4.945639-6.770194 11.794627-16.914228 16.867156-27.273157 1.056052-2.156106 3.692089-4.523013 5.949502-5.334495 20.334117-7.318686 41.203424-21.110807 61.730946-44.854581 68.159356-78.821183 24.351618-182.02673-22.832008-209.388914-2.075265-1.203408-2.673899-0.481977-1.282203 1.471514 100.04353 140.65139-29.918403 247.302409-113.505124 231.247758-57.93448-11.127432-149.759839-39.836287-195.038068 18.415418-1.473561 1.890047-1.314948 2.009773 0.430812 0.360204 28.469402-26.831089 98.905614-25.90909 153.649426-6.870478 24.391527 8.485255 56.626695 20.088524 91.734284 15.647375 2.379187-0.300852 3.755534 1.24741 2.908236 3.494591-16.457834 43.895743-72.943312 45.597501-90.667999 60.132542-1.856277 1.51654-2.379187 1.26583-1.430582-0.937348 9.252735-21.487384 27.538193-33.555234 39.690978-39.403428 2.162246-1.040702 2.015913-1.642406-0.345877-1.219781-30.556946 5.501294-60.10082 41.089837-67.088978 66.153676-0.642636 2.309602-1.683339 2.409886-2.794649 0.282433-7.287987-13.989619-24.427342-30.05348-43.837414-40.290635-2.12029-1.122567-2.540869-0.539282-0.830925 1.144056 17.210987 16.938788 54.530964 47.672766 36.947494 104.522542-13.025665 42.133609-39.129182 35.138288-55.18281 35.034934-2.399653-0.019443-3.440355-1.520633-2.183735-3.567245 8.558933-13.954827 22.880103-26.837228 29.91124-33.262568 1.771343-1.617847 1.346671-2.300392-0.822738-1.269923-22.87601 10.835789-37.177737 36.630269-49.336662 40.685631-11.922541 3.971451-24.6494 17.754363-34.788318 4.595668-1.465374-1.899256-0.979304-5.018294 0.674359-6.754844 21.199835-22.254863 49.418526-62.031798 50.78157-69.745481 1.427512-8.096399-9.06854-35.786041-47.619554-37.623899-48.734958-2.313695-125.066437 54.622038-161.089885 13.860682-1.586125-1.798972-0.861624-2.824325 1.446955-2.169409 6.115278 1.74576 17.664312 4.89959 25.812899 6.288217 2.366907 0.407276 2.635013-0.410346 0.48607-1.482771-19.810185-9.901511-71.877027-26.38595-78.091566-37.924751-6.138814-11.416004-12.698207-42.666752-3.977591-57.919131 1.189082-2.084475 2.830465-1.583055 3.248997 0.780783 0.50142 2.845815 1.243317 6.613628 2.124384 9.720386 0.651846 2.306532 1.609661 2.143826 1.680269-0.25685 0.338714-11.504008-0.734734-22.966061 6.444782-28.040636 8.104585-5.708002 16.670681-15.233959 24.772196-16.186657 8.091282-0.949628 14.284331 3.325745 25.712615-5.237281 11.43033-8.569166 46.189995-56.193837 65.24191-73.813123 17.452487-16.148795 56.524364-49.105395 72.082712-59.991326 1.968841-1.3743 1.671059-2.417049-0.697895-2.816139-14.285355-2.429329-25.679869-14.759145-20.907169-33.382295 5.231141-20.476357 24.281009-34.283828 59.044768-40.953737 33.597189-6.444782 80.992639-13.331633 87.135546-53.775764 0.360204-2.376117-0.354064-2.560312-1.535983-0.474814-20.751626 36.687574-65.575508 39.895639-88.549755 45.49517-2.333138 0.568958-2.517333 0.145309-0.479931-1.12052 37.919634-23.577998 67.164702-59.484789 92.51302-66.381873 2.315742-0.630357 3.762697-2.769067 3.337002-5.129834-8.035-44.48926 32.739659-82.294284 17.575284-130.229017-0.724501-2.285043 0.35918-3.325745 2.477424-2.200108 15.228843 8.095375 47.606251 33.677007 59.820434 122.365932 0.327458 2.376117 2.474354 4.706185 4.777817 5.383614 14.763239 4.357238 37.424354 16.137539 48.583508 25.232684 1.858324 1.517563 5.184069 2.794649 7.578606 2.928702 60.84067 3.494591 290.968931 124.028804 148.544151 443.001533-0.975211 2.187829-0.212848 2.801812 1.595334 1.228991 18.173918-15.807011 59.282175-66.692958 69.673849-119.665427 0.460488-2.357697-0.354064-2.689249-1.858324-0.821715-6.112208 7.576559-14.023388 14.550391-22.405289 20.687158-1.937119 1.420349-2.993171 0.661056-2.353604-1.651616 20.609387-74.444503 15.390525-151.386896-19.045775-219.582067-1.081635-2.143826-0.627287-2.474354 1.01512-0.724501 44.626383 47.52541 94.583169 138.743948 68.795852 304.956503-0.366344 2.366907-0.147356 2.417049 0.48607 0.100284 47.02706-172.986843-16.014742-362.16239-224.363977-435.031001C561.610908 275.774881 558.845934 273.431509 557.469588 271.466762zM307.648822 740.432643c-6.499018 9.366322-22.047132 26.332738-28.909423 34.248012-1.571798 1.814322-4.601808 2.573615-6.506181 1.109264-4.812609-3.708462-9.667174-10.80816 4.363378-15.233959 15.164375-4.796236 24.981974-14.045901 30.56411-20.465101C308.736597 738.279606 309.016982 738.461755 307.648822 740.432643zM264.738523 682.130795c-14.57188 11.397584-62.565964 38.639019-87.686085 25.223474-2.119267-1.128707-1.691525-2.410909 0.690732-2.683109 23.090904-2.648316 66.401316-20.082384 86.005816-24.568559C266.088264 679.567413 266.629593 680.655188 264.738523 682.130795z" fill="#1296db" p-id="3204"></path></svg>