<svg width="294" height="81" xmlns="http://www.w3.org/2000/svg" xmlns:xlink="http://www.w3.org/1999/xlink" overflow="hidden"><defs><clipPath id="clip0"><rect x="493" y="319" width="294" height="81"/></clipPath></defs><g clip-path="url(#clip0)" transform="translate(-493 -319)"><path d="M730.825 368.866C728.727 368.423 729.969 367.752 729.641 366.01 729.355 364.468 727.956 362.955 727.999 361.813 728.114 358.725 732.068 358.958 734.466 359.9 735.046 360.259 735.535 360.748 735.893 361.328 736.989 362.913 738.291 365.225 736.591 367.039 735.097 368.544 732.979 369.254 730.88 368.951" fill="#003F88" fill-rule="evenodd"/><path d="M706.984 365.653 706.785 365.567 706.785 364.897C708.979 363.643 711.1 362.266 713.138 360.771 714.887 359.608 716.166 357.863 716.75 355.846 712.665 357.188 708.798 360.13 704.573 360.485 702.942 359.93 701.373 359.208 699.89 358.329L699.89 358.101C697.649 356.674 697.449 354.761 699.89 353.947 704.174 354.889 710.65 351.849 714.665 350.321 716.164 349.822 717.579 349.1 718.863 348.18 719.805 342.569 719.191 336.93 719.519 331.563 720.947 327.665 723.317 330.306 725.715 332.26 725.886 332.574 726.428 332.93 726.91 333.688L727.153 333.688C728.166 335.315 728.448 336.058 726.867 337.573 725.778 340.292 725.292 343.215 725.44 346.14 728.295 345.726 730.122 343.171 733.52 343.114 734.433 344.5 734.086 346.36 732.735 347.325 730.266 348.51 727.582 349.567 724.783 350.837 724.19 353.944 722.895 356.874 720.997 359.404 720.381 360.105 719.707 360.755 718.985 361.346 717.304 362.523 715.482 363.483 713.561 364.201 711.445 364.947 709.244 365.425 707.009 365.625" fill="#003F88" fill-rule="evenodd"/><path d="M654.492 375.232C652.489 374.023 650.794 372.366 649.539 370.392 649.724 369.849 649.91 369.307 650.124 368.798 654.976 365.418 659.585 361.7 663.914 357.673 665.227 355.66 666.927 353.561 668.339 351.577 668.412 351.529 668.496 351.5 668.583 351.491 668.577 351.42 668.577 351.348 668.583 351.277 669.796 350.335 670.31 350.082 671.338 351.634 671.424 352.947 669.083 354.332 668.354 355.56 667.441 357.887 666.399 360.256 665.213 362.698 664.482 363.584 663.841 364.54 663.301 365.553 661.759 367.022 660.506 368.765 659.603 370.693 658.176 371.563 657.463 374.218 655.649 375.147 655.267 375.167 654.885 375.21 654.508 375.275" fill="#003F88" fill-rule="evenodd"/><path d="M682.602 358.544C679.661 358.415 678.833 356.545 677.234 354.832 677.234 354.061 677.648 353.604 677.719 353.061 678.142 353.004 678.547 352.853 678.904 352.619 680.131 352.448 680.574 352.519 681.901 352.434 683.6 352.048 687.925 349.064 689.382 350.35 689.596 353.918 685.713 357.488 682.601 358.544" fill="#003F88" fill-rule="evenodd"/><path d="M660.046 352.919C658.932 351.934 658.704 347.394 658.618 345.966 659.446 343.44 662.005 343.339 664.128 344.981 665.827 347.207 666.984 348.136 665.199 350.691 663.815 352.038 661.976 352.817 660.046 352.875" fill="#003F88" fill-rule="evenodd"/><path d="M681.876 350.721C681.577 349.294 683.47 346.437 682.932 345.682 682.219 345.782 681.505 346.054 680.749 346.097 678.978 345.24 677.037 343.084 677.751 341.428 679.046 340.001 678.548 340.332 680.606 340.201 682.548 339.33 684.491 338.487 686.459 337.646 689.757 337.032 691.27 338.841 691.47 342.071 690.755 344.079 689.616 345.91 688.13 347.439 686.388 348.395 684.803 349.451 683.219 350.494 682.77 350.525 682.325 350.601 681.891 350.722" fill="#003F88" fill-rule="evenodd"/><path d="M663.786 341.398C663.088 340.785 663.371 340.456 663.786 339.828 663.7 338.472 662.889 337.373 662.8 336.073 663.243 333.676 662.8 332.805 664.77 331.648 666.312 332.334 671.68 335.074 670.48 338.087 668.742 339.927 666.413 341.098 663.899 341.398" fill="#003F88" fill-rule="evenodd"/><path d="M594.249 377.53C591.051 376.303 588.272 369.978 592.122 368.422 592.238 367.849 592.627 367.369 593.164 367.137 593.158 367.056 593.158 366.975 593.164 366.894 596.263 363.896 598.289 359.756 600.902 356.402 601.573 355.145 601.93 353.932 603.358 353.546 604.086 354.175 603.829 355.617 603.629 356.716 603.943 357.001 605.057 356.787 605.713 356.587 607.869 354.717 610.681 353.089 612.851 351.134 612.966 350.177 613.065 349.221 613.223 348.278 611.709 348.635 606.784 349.792 607.969 347.008 609.812 346.28 612.623 344.696 613.68 342.724 614.151 340.697 613.879 338.441 614.907 337.014 616.977 335.943 619.432 338.556 619.847 340.8 620.674 342.227 623.273 340.443 620.046 344.997 619.36 345.495 619.389 346.424 619.518 347.523L620.231 347.523C622.114 346.128 624.068 344.832 626.084 343.638 626.441 340.915 627.262 338.274 628.511 335.829 630.523 334.402 633.25 335.944 635.207 337.514 636.634 337.365 637.976 336.759 639.032 335.787 639.529 335.627 640.055 335.573 640.574 335.629 640.992 336.406 641.208 337.274 641.203 338.156 640.247 341.125 631.739 342.096 633.38 345.551 634.807 345.451 635.364 343.837 635.921 342.695 637.577 341.811 641.174 342.881 642.901 344.123 644.843 346.478 643.344 347.278 641.203 348.763 640.975 349.076 640.761 349.405 640.574 349.719 640.432 354.458 640.432 354.458 640.574 360.883 640 362.383 639.114 363.745 637.976 364.88L637.976 365.079 637.619 365.079C636.792 366.507 634.764 367.934 633.594 366.507 633.594 361.226 633.865 355.757 633.679 350.803 633.59 350.816 633.502 350.845 633.422 350.889 633.037 353.458 630.468 358.284 628.269 359.868 626.379 360.018 624.624 358.883 623.985 357.098 624.199 356.57 624.583 356.456 625.013 356.085 626.155 353.744 625.81 349.432 625.81 347.134 624.154 347.377 621.385 351.103 620.1 352.487 619.272 353.158 618.429 353.815 617.616 354.486 617.03 356.442 616.574 358.371 616.06 360.463 615.618 361.391 615.175 362.376 614.718 363.319L614.49 363.319C613.719 364.614 611.221 368.03 609.736 365.888L609.736 365.046C611.006 363.155 611.758 360.965 611.92 358.693 609.907 359.364 608.565 361.206 606.54 361.334 605.468 361.14 604.426 360.805 603.442 360.338 603.436 360.262 603.436 360.186 603.442 360.11 602.943 359.796 602.445 359.367 602.146 359.481 601.775 360.609 601.418 361.793 601.076 362.968 599.022 367.29 597.355 371.785 596.094 376.401 595.635 376.967 594.986 377.348 594.267 377.472" fill="#003F88" fill-rule="evenodd"/><path d="M598.232 352.348C597.604 351.434 598.375 350.25 598.404 349.193 597.418 346.209 596.633 343.983 598.532 341.47L599.446 341.384C601.156 342.758 602.677 344.352 603.971 346.124 605.398 349.692 600.816 351.291 598.26 352.333" fill="#003F88" fill-rule="evenodd"/><path d="M601.101 340.799C600.345 340.542 600.359 340.37 600.217 340.113 600.573 339.385 600.914 338.957 600.774 338.214 598.947 335.359 599.046 331.076 602.201 329.734 603.129 329.849 603.144 330.631 603.629 331.89 605.684 333.889 609.507 336.358 605.884 339.028 604.357 339.699 602.696 340.224 601.173 340.756" fill="#003F88" fill-rule="evenodd"/><path d="M753.57 351.749C750.715 350.865 751.243 346.17 751.728 344.269 753.813 342.941 756.553 345.696 756.71 348.154 756.167 350.852 756.196 351.252 753.568 351.751" fill="#003F88" fill-rule="evenodd"/><path d="M769.026 373.409 768.783 373.267C765.253 373.549 761.704 373.111 758.347 371.982 758.219 371.762 758.159 371.508 758.176 371.254 760.104 370.126 762.829 370.44 764.315 368.398 764.586 366.988 764.672 365.548 764.572 364.115 760.946 364.329 759.004 366.97 756.135 367.94 753.679 368.083 749.297 365.856 748.583 363.9 748.583 360.745 749.24 362.159 752.623 361.959 756.649 361.245 760.675 358.918 764.572 357.22 764.946 356.867 765.387 356.59 765.867 356.406 766.724 353.779 767.295 353.307 770.064 352.779 771.135 352.236 771.135 352.236 774.261 350.353 774.332 350.038 774.423 349.728 774.532 349.425 769.793 349.996 765.965 353.836 762.179 356.363 760.655 356.809 759.019 356.671 757.591 355.975 756.763 356.09 752.052 356.932 754.337 355.048 755.764 354.505 756.806 353.492 758.291 352.835 761.845 350.451 765.962 348.395 769.797 346.197 769.783 345.807 769.654 345.43 769.427 345.112 769.432 344.479 769.563 343.853 769.812 343.27 769.098 343.527 768.899 343.47 768.756 344.013 766.487 345.009 765.515 347.082 763.617 344.897 763.267 346.829 761.649 348.276 759.69 348.409 757.663 347.367 757.606 343.969 757.25 342.399 757.107 342.199 756.821 340.885 756.264 339.358 755.337 337.488 753.637 335.389 754.77 333.648 756.198 332.763 756.797 332.434 758.025 334.39 759.317 335.323 760.474 336.429 761.465 337.677L761.693 337.677C762.335 339.405 763.919 341.674 763.748 343.873 764.819 343.244 766.332 342.017 765.547 340.661 763.791 339.719 764.791 338.077 766.018 337.473 766.685 337.524 767.355 337.5 768.017 337.401 768.039 337.148 767.938 336.898 767.746 336.731 766.318 336.217 766.561 335.874 766.949 334.676 765.515 334.242 764.704 332.728 765.138 331.294 765.17 331.19 765.206 331.089 765.25 330.99 770.219 329.747 770.219 329.747 772.531 329.005 774.08 327.084 775.751 321.869 778.747 322.783 779.819 324.145 780.33 325.867 780.175 327.594 779.709 328.312 779.353 329.097 779.119 329.921L780.016 329.921C782.086 328.893 783.042 327.665 784.299 330.749 786.312 331.834 787.026 331.546 786.269 334.461 784.841 337.388 783.242 340.514 781.629 343.455 781.609 343.587 781.609 343.721 781.629 343.853 782.001 343.92 782.372 344.005 782.743 344.11 782.949 345.619 783.021 347.143 782.957 348.664 781.715 350.506 780.102 350.506 778.161 350.762 775.634 352.018 773.364 353.06 771.023 354.474 770.968 354.998 771.021 355.528 771.18 356.03L774.854 356.03C776.21 356.915 776.096 359.384 775.253 360.827 774.048 360.909 772.875 361.249 771.812 361.823 771.684 362.495 771.555 363.179 771.441 363.878 771.527 366.506 772.869 372.858 769 373.457M776.747 341.071C778.004 340.053 778.728 338.519 778.716 336.902 777.583 336.144 776.219 335.806 774.862 335.946 774.495 336.917 774.016 337.842 773.434 338.702L773.82 338.873C773.693 338.905 773.573 338.958 773.463 339.03 773.478 339.109 773.502 339.186 773.535 339.258 774.006 339.236 774.428 338.956 774.631 338.53 776.544 338.216 776.586 338.902 776.444 340.943 776.531 340.975 776.612 341.018 776.687 341.072" fill="#003F88" fill-rule="evenodd"/><path d="M599.845 389.623 605.456 382.699 600.288 382.699 600.288 381.613 606.997 381.613 606.997 382.669 601.386 389.607 606.997 389.607 606.997 390.703 599.845 390.703 599.845 389.623Z" fill="#003F88"/><path d="M609.796 381.613 611.023 381.613 611.023 385.339 615.763 385.339 615.763 381.613 617.005 381.613 617.005 390.707 615.763 390.707 615.763 386.423 611.023 386.423 611.023 390.707 609.796 390.707Z" fill="#003F88"/><path d="M620.317 390.707 620.317 381.613 626.97 381.613 626.97 382.698 621.544 382.698 621.544 385.482 626.497 385.482 626.497 386.567 621.544 386.567 621.544 389.607 627.023 389.607 627.023 390.703Z" fill="#003F88"/><path d="M633.337 381.613 634.564 381.613 634.564 388.152C634.619 388.905 634.372 389.65 633.879 390.222 633.376 390.73 632.679 390.996 631.966 390.95 631.243 390.998 630.532 390.751 629.995 390.265 629.519 389.765 629.284 389.082 629.353 388.395L629.353 387.766 630.509 387.766 630.509 388.395C630.479 388.798 630.607 389.198 630.866 389.509 631.127 389.787 631.499 389.933 631.879 389.907 632.287 389.91 632.677 389.739 632.95 389.436 633.221 389.064 633.357 388.611 633.336 388.151Z" fill="#003F88"/><path d="M637.947 381.613 639.175 381.613 639.175 390.707 637.947 390.707Z" fill="#003F88"/><path d="M645.199 381.613 646.626 381.613 649.895 390.693 648.567 390.693 647.611 388.066 643.984 388.066 643.028 390.693 641.759 390.693ZM644.385 386.981 647.238 386.981 645.811 382.941 645.811 382.941Z" fill="#003F88"/><path d="M653.45 390.707 652.265 390.707 652.265 381.613 653.736 381.613 658.289 388.994 658.289 381.613 659.478 381.613 659.478 390.707 658.136 390.707 653.454 383.284Z" fill="#003F88"/><path d="M667.051 390.949C665.881 390.99 664.753 390.503 663.982 389.621 663.18 388.653 662.767 387.422 662.825 386.166 662.758 384.895 663.182 383.646 664.01 382.679 665.526 381.117 667.962 380.91 669.72 382.194 670.418 382.703 670.873 383.478 670.976 384.335L669.792 384.335C669.71 383.76 669.395 383.243 668.921 382.908 668.376 382.562 667.739 382.393 667.094 382.422 666.252 382.4 665.45 382.782 664.938 383.451 663.853 385.101 663.853 387.239 664.938 388.89 665.489 389.55 666.321 389.911 667.18 389.86 668.054 389.883 668.89 389.504 669.449 388.832 669.542 388.726 669.623 388.612 669.692 388.489 669.814 388.282 669.901 388.055 669.949 387.819 670.016 387.553 670.049 387.279 670.049 387.005L670.049 386.891 667.194 386.891 667.194 385.852 671.163 385.852 671.163 390.663 670.392 390.663 670.106 389.522 670.106 389.522C669.384 390.397 668.299 390.887 667.165 390.85" fill="#003F88"/><path d="M686.784 387.367C686.956 389.174 685.631 390.779 683.823 390.952 683.621 390.971 683.417 390.971 683.215 390.953 682.239 391.017 681.278 390.688 680.545 390.04 679.892 389.31 679.562 388.347 679.632 387.37L679.632 381.656 680.859 381.656 680.859 387.367C680.806 388.062 681.02 388.751 681.457 389.294 682.458 390.171 683.953 390.171 684.955 389.294 685.392 388.751 685.605 388.062 685.552 387.367L685.552 381.656 686.78 381.656Z" fill="#003F88"/><path d="M691.452 390.707 690.257 390.707 690.257 381.613 691.741 381.613 696.295 388.994 696.295 381.613 697.479 381.613 697.479 390.707 696.137 390.707 691.455 383.284Z" fill="#003F88"/><path d="M700.86 381.613 702.087 381.613 702.087 390.707 700.86 390.707Z" fill="#003F88"/><path d="M704.486 381.613 705.857 381.613 708.469 389.384 708.469 389.384 711.067 381.613 712.438 381.613 709.128 390.707 707.8 390.707Z" fill="#003F88"/><path d="M714.793 390.707 714.793 381.613 721.431 381.613 721.431 382.698 716.02 382.698 716.02 385.482 720.96 385.482 720.96 386.567 716.02 386.567 716.02 389.607 721.5 389.607 721.5 390.703Z" fill="#003F88"/><path d="M724.786 381.613 729.07 381.613C729.854 381.555 730.634 381.778 731.269 382.242 731.799 382.702 732.079 383.385 732.025 384.084 732.068 384.976 731.596 385.814 730.811 386.24L731.026 386.34C731.582 386.674 731.91 387.285 731.882 387.934L731.882 389.589C731.877 389.794 731.916 389.998 731.997 390.187 732.078 390.325 732.204 390.43 732.354 390.486L732.354 390.685 730.84 390.685C730.778 390.496 730.744 390.299 730.741 390.099 730.75 389.751 730.726 389.402 730.669 389.057L730.669 388.344C730.692 387.901 730.543 387.467 730.255 387.131 729.885 386.858 729.427 386.731 728.969 386.774L726.114 386.774 726.114 390.685 724.886 390.685ZM726.014 385.711 729.054 385.711C729.504 385.747 729.952 385.614 730.31 385.339 730.596 385.015 730.736 384.586 730.696 384.155 730.735 383.732 730.582 383.313 730.281 383.013 729.906 382.728 729.438 382.596 728.968 382.642L726.014 382.642Z" fill="#003F88"/><path d="M740.843 384.24C740.812 383.72 740.563 383.237 740.157 382.912 739.693 382.582 739.131 382.421 738.563 382.454 738.005 382.413 737.449 382.553 736.978 382.853 736.622 383.134 736.42 383.569 736.436 384.023 736.416 384.332 736.557 384.628 736.808 384.808 737.252 385.058 737.734 385.232 738.235 385.322L739.82 385.708C740.498 385.82 741.128 386.127 741.634 386.593 742.019 387.061 742.213 387.658 742.177 388.263 742.204 389.031 741.852 389.762 741.234 390.219 740.498 390.74 739.608 390.996 738.708 390.947 737.709 391.008 736.721 390.71 735.924 390.105 735.266 389.552 734.901 388.724 734.939 387.864L734.939 387.792 736.123 387.792C736.12 388.386 736.388 388.948 736.852 389.319 737.411 389.705 738.086 389.891 738.764 389.847 739.361 389.893 739.958 389.759 740.478 389.462 740.86 389.211 741.084 388.777 741.063 388.32 741.09 387.955 740.947 387.597 740.677 387.35 740.204 387.06 739.681 386.862 739.135 386.764L737.55 386.378C736.914 386.275 736.318 386.004 735.823 385.593 735.469 385.205 735.289 384.69 735.324 384.166 735.286 383.376 735.611 382.613 736.209 382.096 736.888 381.555 737.741 381.286 738.607 381.34 739.486 381.288 740.352 381.557 741.048 382.096 741.656 382.63 742.009 383.399 742.018 384.209Z" fill="#003F88"/><path d="M745.2 381.613 746.427 381.613 746.427 390.707 745.2 390.707Z" fill="#003F88"/><path d="M752.095 382.698 749.007 382.698 749.007 381.613 756.387 381.613 756.387 382.698 753.317 382.698 753.317 390.707 752.09 390.707Z" fill="#003F88"/><path d="M761.96 387.067 758.534 381.613 759.961 381.613 762.573 386.025 762.573 386.025 765.186 381.613 766.613 381.613 763.187 387.081 763.187 390.707 761.96 390.707Z" fill="#003F88"/><path d="M533.934 319C556.302 319 574.434 337.133 574.434 359.5 574.434 381.867 556.302 400 533.934 400 511.567 400 493.434 381.867 493.434 359.5 493.434 337.133 511.567 319 533.934 319M533.934 320.613C512.457 320.613 495.047 338.023 495.047 359.5 495.047 380.977 512.457 398.387 533.934 398.387 555.411 398.387 572.821 380.977 572.821 359.5 572.821 338.023 555.411 320.613 533.934 320.613" fill="#003F88"/><path d="M519.701 376.76C517.146 374.634 515.09 371.973 513.677 368.965 508.435 357.773 513.258 344.451 524.45 339.209 535.642 333.967 548.965 338.791 554.206 349.983 558.544 359.243 556.052 370.266 548.152 376.76L547.681 376.103C556.866 368.527 558.17 354.939 550.593 345.754 543.017 336.569 529.429 335.266 520.244 342.842 512.649 349.108 510.263 359.724 514.449 368.636 515.806 371.515 517.774 374.063 520.216 376.102Z" fill="#003F88"/><path d="M499.258 373.02 497.731 368.922 498.559 368.636 505.554 369.707 504.495 366.824 505.323 366.538 506.718 370.293 505.876 370.579 498.888 369.508 500.083 372.734Z" fill="#003F88" fill-rule="evenodd"/><path d="M501.914 378.615 501.504 377.787 504.791 376.102 503.741 374.06 500.454 375.759 500.025 374.945 507.063 371.318 507.491 372.146 504.526 373.661 505.568 375.689 508.538 374.176 508.953 374.99Z" fill="#003F88" fill-rule="evenodd"/><path d="M505.255 383.069 502.756 379.572 509.351 375.475 511.735 378.802 511.007 379.244 509.194 376.718 507.138 377.988 508.809 380.315 508.081 380.773 506.412 378.444 504.055 379.915 505.982 382.613Z" fill="#003F88" fill-rule="evenodd"/><path d="M510.864 388.551 510.023 387.854 514.89 381.886 515.718 382.584Z" fill="#003F88" fill-rule="evenodd"/><path d="M514.634 391.177 515.619 389.064 514.424 388.194 512.625 389.935 511.797 389.307 517.507 383.683 518.664 384.38 515.608 391.803ZM516.062 388.036 517.246 385.31 517.132 385.21 515.076 387.309Z" fill="#003F88" fill-rule="evenodd"/><path d="M520.33 393.95 519.316 393.465 519.914 387.985 517.659 392.596 516.631 392.125 520.199 385.058 521.127 385.487 520.698 390.697 523.025 386.4 523.882 386.757Z" fill="#003F88" fill-rule="evenodd"/><path d="M525.654 395.532 524.984 395.318 524.984 394.69C524.804 394.835 524.585 394.924 524.355 394.947 524.096 394.987 523.831 394.963 523.584 394.875 522.998 394.665 522.548 394.187 522.371 393.59 522.095 392.649 522.15 391.641 522.528 390.735 522.75 389.714 523.243 388.772 523.956 388.008 524.609 387.426 525.525 387.241 526.354 387.523 527.211 387.794 527.781 388.836 527.524 390.279L526.496 390.207C526.668 389.579 526.582 388.613 525.982 388.423 525.475 388.247 524.912 388.393 524.555 388.794 524.08 389.461 523.738 390.212 523.544 391.007 523.263 391.713 523.179 392.483 523.301 393.234 523.375 393.631 523.651 393.961 524.03 394.104 524.336 394.221 524.681 394.172 524.943 393.976 525.279 393.673 525.513 393.275 525.614 392.834L525.756 392.377 524.541 391.992 524.784 391.195 526.782 391.852Z" fill="#003F88" fill-rule="evenodd"/><path d="M536.176 393.79C536.193 394.398 535.99 394.991 535.605 395.461 535.173 395.891 534.567 396.096 533.963 396.018 533.349 396.048 532.755 395.796 532.35 395.333 531.999 394.834 531.837 394.226 531.893 393.619L532.064 388.239 533.007 388.239 532.835 393.664C532.791 394.064 532.897 394.466 533.134 394.792 533.352 395.036 533.664 395.176 533.991 395.177 534.315 395.2 534.633 395.08 534.862 394.848 535.122 394.545 535.255 394.152 535.233 393.753L535.405 388.373 536.361 388.373Z" fill="#003F88" fill-rule="evenodd"/><path d="M541.586 395.22 540.729 395.363 538.06 390.209 538.474 395.734 537.461 395.877 536.875 388.125 538.032 388.025 540.244 391.634 539.834 387.748 540.676 387.606Z" fill="#003F88" fill-rule="evenodd"/><path d="M544.47 394.418 543.485 394.717 541.415 387.381 542.411 387.082Z" fill="#003F88" fill-rule="evenodd"/><path d="M547.154 385.125 548.411 393.22 547.44 393.705 543.142 386.824 544.085 386.425 547.069 391.122 546.241 385.526Z" fill="#003F88" fill-rule="evenodd"/><path d="M555.119 389.708 551.508 391.664 547.568 384.897 551.008 383.041 551.436 383.797 548.809 385.211 550.038 387.31 552.451 386.015 552.894 386.757 550.48 388.062 551.874 390.475 554.673 388.962Z" fill="#003F88" fill-rule="evenodd"/><path d="M559.243 386.824 558.446 387.494 555.59 385.182 554.862 385.839 556.761 388.408 555.964 389.25 551.323 382.727 552.75 381.671C553.221 381.304 553.81 381.122 554.406 381.157 555.533 381.174 556.433 382.101 556.417 383.228 556.416 383.294 556.412 383.361 556.404 383.427 556.403 383.79 556.345 384.152 556.233 384.498ZM554.232 382.227C553.646 382.07 553.189 382.526 552.804 382.856L554.349 384.901C554.786 384.663 555.147 384.306 555.391 383.873 555.571 383.162 555.14 382.44 554.429 382.26 554.379 382.248 554.328 382.238 554.277 382.231" fill="#003F88" fill-rule="evenodd"/><path d="M561.743 380.529C562.768 381.208 563.048 382.59 562.369 383.615 562.023 384.136 561.475 384.488 560.857 384.584 560.333 384.654 559.799 384.56 559.33 384.313L559.687 383.485C560.02 383.609 560.375 383.657 560.729 383.628 561.41 383.546 561.896 382.927 561.814 382.246 561.769 381.875 561.56 381.543 561.243 381.343 560.942 381.153 560.581 381.082 560.23 381.144 559.302 381.244 558.703 381.941 557.674 382.015 556.619 382.114 555.682 381.342 555.576 380.287 555.478 379.734 555.596 379.163 555.905 378.693 556.533 377.767 557.794 377.524 558.721 378.152 558.734 378.161 558.747 378.17 558.76 378.179L558.404 379.021C557.84 378.711 557.138 378.816 556.69 379.278 556.513 379.521 556.446 379.826 556.505 380.12 556.544 380.669 557.021 381.082 557.57 381.042 557.596 381.04 557.621 381.037 557.647 381.034 558.643 380.905 559.317 380.077 560.317 380.12 560.842 380.131 561.355 380.273 561.811 380.535" fill="#003F88" fill-rule="evenodd"/><path d="M565.155 379.529 564.584 380.243 557.904 376.058 558.489 375.345Z" fill="#003F88" fill-rule="evenodd"/><path d="M561.786 371.078 561.058 372.449 567.353 376.161 566.925 376.946 560.629 373.251 559.887 374.607 559.102 374.148 561.001 370.622Z" fill="#003F88" fill-rule="evenodd"/><path d="M562.943 365.881 566.783 369.307 569.352 370.424 569.039 371.28 566.669 370.367 561.189 370.238 561.46 369.354 565.286 369.411 562.571 366.923Z" fill="#003F88" fill-rule="evenodd"/><path d="M510.28 385.11C509.795 385.685 509.112 386.057 508.367 386.152 507.759 386.163 507.177 385.909 506.773 385.455 506.354 385.045 506.12 384.483 506.125 383.897 506.132 383.571 506.22 383.252 506.382 382.969L507.253 383.497C507.185 383.631 507.146 383.776 507.138 383.926 507.115 384.22 507.219 384.51 507.424 384.723 507.654 384.995 507.996 385.147 508.352 385.137 508.812 385.031 509.224 384.775 509.522 384.409L513.42 380.597 514.133 381.326Z" fill="#003F88" fill-rule="evenodd"/><path d="M523.413 383.768 520.672 382.099 520.915 381.684 521.912 382.298 523.506 379.443 522.509 378.829 522.724 378.457C523.001 378.643 523.311 378.774 523.637 378.843 523.864 378.872 524.087 378.766 524.208 378.572L524.837 378.957 522.685 382.712 523.67 383.326ZM531.452 382.07C531.496 381.847 531.407 381.618 531.223 381.484 530.969 381.285 530.661 381.166 530.339 381.141 530.034 381.067 529.716 381.067 529.411 381.141 529.191 381.21 529.024 381.389 528.969 381.612 528.936 381.763 528.973 381.92 529.069 382.041 529.196 382.199 529.357 382.326 529.54 382.412 529.625 382.412 529.768 382.541 529.968 382.627 530.148 382.716 530.334 382.792 530.525 382.855 530.771 382.785 531 382.663 531.196 382.498 531.325 382.359 531.414 382.186 531.453 382M531.096 384.413C531.143 384.248 531.116 384.072 531.024 383.928 530.848 383.734 530.634 383.578 530.396 383.47L529.981 383.285 529.383 383.028C529.117 383.083 528.868 383.201 528.655 383.371 528.489 383.519 528.37 383.713 528.312 383.928 528.251 384.215 528.356 384.513 528.583 384.699 528.846 384.944 529.182 385.095 529.54 385.127 529.875 385.201 530.224 385.191 530.555 385.096 530.819 384.996 531.01 384.762 531.053 384.483M529.382 385.667C529.05 385.628 528.724 385.547 528.412 385.424 528.15 385.333 527.907 385.193 527.699 385.01 527.529 384.874 527.396 384.697 527.313 384.496 527.256 384.304 527.256 384.101 527.313 383.91 527.353 383.646 527.491 383.406 527.699 383.238 528.006 383.03 528.358 382.898 528.727 382.853L528.727 382.853C528.456 382.714 528.214 382.525 528.014 382.296 527.872 382.114 527.818 381.879 527.865 381.653 527.97 381.255 528.281 380.944 528.679 380.839 529.215 380.65 529.79 380.601 530.35 380.697 530.91 380.747 531.446 380.944 531.906 381.268 532.229 381.47 532.398 381.848 532.334 382.224 532.27 382.466 532.123 382.677 531.92 382.822 531.639 383.018 531.316 383.146 530.977 383.193L530.977 383.193C531.308 383.34 531.609 383.548 531.862 383.807 532.044 384.02 532.113 384.306 532.047 384.578 531.926 385.02 531.588 385.37 531.151 385.506 530.573 385.727 529.946 385.786 529.338 385.677M538.674 382.722C538.687 382.449 538.638 382.177 538.532 381.925 538.457 381.731 538.328 381.563 538.16 381.44 538.026 381.344 537.877 381.271 537.718 381.226 537.561 381.21 537.403 381.21 537.247 381.226 536.904 381.203 536.564 381.305 536.29 381.512 536.046 381.715 535.914 382.023 535.934 382.34 535.922 382.518 535.962 382.697 536.048 382.854 536.142 383.002 536.275 383.121 536.434 383.196 536.563 383.265 536.703 383.308 536.848 383.325 537.24 383.346 537.634 383.317 538.019 383.239 538.234 383.201 538.445 383.139 538.647 383.054 538.655 383.012 538.655 382.968 538.647 382.926 538.655 382.864 538.655 382.802 538.647 382.74M534.908 382.326C534.911 382.085 534.974 381.85 535.093 381.64 535.224 381.435 535.393 381.256 535.591 381.112 535.818 380.959 536.069 380.843 536.333 380.77 536.622 380.696 536.919 380.658 537.218 380.657 537.526 380.655 537.833 380.694 538.131 380.772 538.382 380.837 538.618 380.949 538.829 381.1 539.082 381.272 539.284 381.509 539.414 381.786 539.567 382.13 539.64 382.505 539.629 382.882 539.629 383.271 539.561 383.657 539.429 384.023 539.298 384.362 539.094 384.668 538.832 384.92 538.537 385.178 538.192 385.372 537.818 385.491 537.355 385.629 536.874 385.696 536.391 385.69L535.563 385.69 535.563 385.061 535.563 385.061C535.686 385.113 535.816 385.146 535.949 385.161L536.463 385.161C537.001 385.191 537.534 385.04 537.976 384.733 538.347 384.444 538.571 384.007 538.59 383.537 538.351 383.646 538.102 383.732 537.847 383.794 537.595 383.854 537.336 383.883 537.076 383.88 536.829 383.896 536.581 383.896 536.334 383.88 536.105 383.836 535.884 383.759 535.678 383.652 535.438 383.541 535.232 383.37 535.08 383.154 534.947 382.929 534.878 382.672 534.881 382.411M545.459 378.271 545.273 383.267 544.517 383.752 544.517 379.029 541.658 380.458 541.401 379.901 545.07 377.988Z" fill="#003F88" fill-rule="evenodd"/><path d="M547.153 337.715C546.556 337.429 546.968 337.317 547.011 336.773 547.054 336.229 546.725 335.745 546.826 335.417 547.083 334.52 548.253 334.86 548.867 335.317 549.007 335.467 549.11 335.648 549.166 335.845 549.38 336.388 549.594 337.158 548.966 337.559 548.419 337.891 547.749 337.949 547.153 337.716" fill="#003F88" fill-rule="evenodd"/><path d="M540.344 335.045 540.344 335.045C540.336 334.984 540.336 334.922 540.344 334.86 541.082 334.648 541.807 334.39 542.514 334.089 543.121 333.886 543.63 333.463 543.941 332.904 542.656 333.219 541.338 333.381 540.015 333.39 539.577 333.104 539.167 332.78 538.788 332.419L538.788 332.419C538.245 331.834 538.317 331.263 539.102 331.206 540.286 331.792 542.428 331.363 543.712 331.206 544.203 331.179 544.686 331.068 545.14 330.877 545.706 329.287 546.183 327.667 546.568 326.023 547.254 324.981 547.782 325.924 548.353 326.68 548.353 326.78 548.51 326.923 548.61 327.178L548.61 327.178C548.795 327.735 548.824 327.963 548.253 328.306 547.733 329.029 547.377 329.857 547.211 330.733 548.096 330.818 548.805 330.19 549.809 330.419 549.984 330.892 549.75 331.418 549.281 331.603 548.453 331.789 547.597 331.902 546.669 332.075 546.277 332.955 545.686 333.732 544.942 334.344 544.701 334.501 544.448 334.64 544.185 334.758 543.606 334.981 543.002 335.134 542.386 335.216 541.709 335.303 541.023 335.303 540.345 335.216" fill="#003F88" fill-rule="evenodd"/><path d="M520.559 340.814C519.814 340.682 519.111 340.379 518.503 339.929 518.489 339.744 518.489 339.557 518.503 339.372 519.567 337.778 520.521 336.114 521.359 334.391 521.516 333.635 521.773 332.797 521.972 332.036L521.972 332.036C522.229 331.607 522.358 331.465 522.843 331.808 523.028 332.193 522.486 332.893 522.415 333.35 522.433 334.184 522.394 335.019 522.3 335.848 522.196 336.213 522.119 336.586 522.072 336.962 521.78 337.586 521.611 338.259 521.574 338.947 521.217 339.389 521.346 340.26 520.903 340.76L520.575 340.931" fill="#003F88" fill-rule="evenodd"/><path d="M527.111 332.448C526.214 332.762 525.683 332.291 525.056 331.977 524.941 331.749 525.056 331.549 525.056 331.379 525.179 331.32 525.283 331.225 525.355 331.108 525.711 330.909 525.853 330.88 526.239 330.694 526.626 330.508 527.667 328.966 528.252 329.181 528.568 330.385 528.15 331.664 527.182 332.448" fill="#003F88" fill-rule="evenodd"/><path d="M519.644 333.433C519.187 333.262 518.588 332.006 518.388 331.507 518.388 330.65 519.101 330.311 519.93 330.55 520.701 331.022 521.172 331.164 520.943 332.163 520.681 332.731 520.221 333.183 519.648 333.433" fill="#003F88" fill-rule="evenodd"/><path d="M525.939 330.192C525.682 329.806 525.939 328.764 525.654 328.55 525.454 328.664 525.268 328.836 525.056 328.935 524.413 328.935 523.628 328.464 523.628 327.879 523.628 327.295 523.728 327.451 524.326 327.166L525.754 325.735C526.668 325.164 527.339 325.52 527.781 326.477 527.801 327.166 527.674 327.852 527.41 328.489 526.995 328.974 526.654 329.485 526.296 329.917 526.168 329.986 526.044 330.063 525.924 330.145" fill="#003F88" fill-rule="evenodd"/><path d="M519.402 329.507C519.131 329.408 519.131 329.279 519.217 328.993 519.018 328.595 518.646 328.365 518.475 327.98 518.317 327.195 518.076 326.995 518.475 326.41 519.031 326.41 520.973 326.624 520.93 327.68 520.633 328.442 520.069 329.071 519.344 329.45" fill="#003F88" fill-rule="evenodd"/><path d="M509.451 356.202C508.609 356.788 506.595 356.402 506.853 355.206 506.721 355.07 506.667 354.877 506.71 354.692L506.71 354.692C506.368 353.442 505.944 352.217 505.44 351.023 505.241 350.651 504.997 350.353 505.154 349.938 505.44 349.866 505.74 350.181 505.982 350.409 506.096 350.409 506.239 350.067 506.296 349.866 506.21 349.039 506.296 348.067 506.153 347.211 505.939 347.026 505.725 346.84 505.525 346.641 505.353 347.069 504.811 348.483 504.329 347.725 504.518 347.023 504.483 346.28 504.229 345.599 503.801 345.156 503.216 344.842 503.034 344.342 503.106 343.645 504.176 343.486 504.79 343.756 505.288 343.756 505.288 342.86 505.846 344.427 505.846 344.67 506.103 344.841 506.389 344.97L506.518 344.812C506.476 344.114 506.476 343.413 506.518 342.714 505.905 342.174 505.391 341.53 505 340.814 505 340.085 505.827 339.657 506.542 339.386 506.746 339.012 506.821 338.58 506.756 338.159 506.808 338.009 506.885 337.869 506.984 337.744 507.245 337.783 507.494 337.881 507.712 338.03 508.283 338.758 507.084 341.014 508.21 341.199 508.425 340.814 508.125 340.414 507.953 340.103 507.953 339.546 508.867 338.847 509.481 338.676 510.377 338.59 510.322 339.104 510.337 339.871L510.466 340.185C511.608 341.013 511.608 341.013 513.193 342.084 513.463 342.479 513.647 342.926 513.735 343.397L513.735 343.397C513.95 343.839 513.964 344.581 513.422 344.639 512.127 343.768 510.837 342.769 509.567 341.955 509.561 341.983 509.561 342.013 509.567 342.041 510.286 342.812 510.754 343.782 510.909 344.824 510.623 345.323 510.035 345.565 509.482 345.41 509.422 345.281 509.398 345.138 509.41 344.996 508.839 344.3 508.142 343.719 507.355 343.282 507.126 343.725 507.569 345.039 507.711 345.581L507.711 346.523C508.097 346.994 508.482 347.437 508.907 347.951L509.392 348.765 509.392 348.836C509.577 349.235 509.99 350.421 509.221 350.43 509.144 350.391 509.072 350.343 509.006 350.288 508.754 349.643 508.335 349.077 507.793 348.646 507.608 349.244 507.793 349.888 507.522 350.402 507.298 350.634 507.043 350.835 506.766 351L506.766 351C506.613 351 506.471 351.082 506.394 351.214 506.608 351.485 506.837 351.785 507.065 352.056 507.789 353.287 508.615 354.455 509.536 355.547 509.612 355.75 509.612 355.973 509.536 356.176" fill="#003F88" fill-rule="evenodd"/><path d="M503.955 350.992C503.613 350.992 503.457 350.607 503.199 350.421 502.303 350.164 501.629 349.979 501.329 349.093L501.458 348.85C502.099 348.664 502.76 348.558 503.427 348.536 504.555 348.793 504.17 350.192 503.998 350.992" fill="#003F88" fill-rule="evenodd"/><path d="M501.603 348.35C501.404 348.493 501.375 348.45 501.275 348.45 501.174 348.45 501.117 348.078 500.903 347.992 499.918 347.992 498.891 347.221 499.061 346.208 499.246 345.994 499.447 346.123 499.817 346.208 500.659 346.037 501.915 345.523 501.958 346.865 501.865 347.347 501.747 347.824 501.603 348.293" fill="#003F88" fill-rule="evenodd"/><path d="M552.949 349.621 543.1 349.621C540.244 349.621 538.816 352.477 537.66 354.975L536.004 351.249 538.788 350.221C537.16 348.679 532.078 347.823 531.408 350.149L530.211 354.976C529.269 352.806 527.927 349.622 524.915 349.622L514.919 349.622C516.214 351.921 517.46 352.749 522.057 352.549L522.655 354.134 517.617 354.134C519.044 356.869 519.973 356.987 524.027 356.869L524.883 358.768 520.914 358.91C521.771 360.852 522.671 361.68 526.068 361.522L526.738 363.25 523.584 363.25C524.769 365.205 525.355 366.105 527.868 365.877L528.539 367.704 526.34 367.704C526.824 369.16 528.193 370.135 529.727 370.117 530.923 370.302 531.155 372.558 529.727 373.286L534.011 380.167 538.295 373.286C536.867 372.558 537.067 370.302 538.295 370.117 539.828 370.135 541.198 369.16 541.682 367.704L539.345 367.704 540.015 365.877C542.514 366.091 543.104 365.206 544.299 363.25L541.143 363.25 541.813 361.579C545.211 361.737 546.097 360.894 546.953 358.967L542.999 358.825 543.856 356.926C547.91 357.04 548.766 356.926 550.266 354.185L545.212 354.185 545.825 352.6C550.422 352.799 551.664 351.971 552.963 349.673" fill="#003F88"/><path d="M567.953 344.91 567.953 344.824C568.095 344.468 568.081 344.326 568.052 344.268 567.924 344.164 567.772 344.096 567.61 344.068L567.253 344.068 567.253 343.969C567.208 343.914 567.155 343.866 567.096 343.826L566.911 343.754 566.911 343.754 567.154 343.569C567.307 343.441 567.481 343.34 567.668 343.27L567.767 343.27C568.12 342.96 568.34 342.525 568.381 342.057 568.24 341.9 568.033 341.821 567.824 341.843 567.435 341.884 567.052 341.97 566.682 342.1 566.43 342.188 566.173 342.26 565.911 342.314L565.826 342.314C565.197 342.015 565.169 342 563.856 341.318 563.757 341.375 563.681 341.466 563.642 341.575 563.552 341.769 563.552 341.994 563.642 342.188L563.757 342.274 563.757 342.274 563.443 342.445 563.371 342.445 563.285 342.531C563.275 342.588 563.275 342.646 563.285 342.702L563.285 342.845C563.283 342.954 563.237 343.057 563.157 343.131L563.157 343.288 563.157 343.288 562.971 343.146C562.811 343.023 562.658 342.89 562.514 342.747L562.357 342.747C562.239 342.745 562.125 342.792 562.043 342.876 562.043 342.876 562.043 343.047 562.043 343.19L562.043 343.261C562.043 343.447 561.844 343.759 561.258 343.775L560.959 343.775C560.889 343.759 560.815 343.759 560.745 343.775 560.745 344.174 560.916 344.204 561.343 344.274 561.526 344.291 561.708 344.324 561.886 344.373L562.013 344.373C562.1 344.382 562.183 344.412 562.256 344.459L562.57 344.573 562.67 344.573 562.284 344.759C562.14 344.824 562.009 344.916 561.899 345.03 561.871 345.152 561.812 345.266 561.727 345.358L561.727 345.444 561.57 345.444 560.728 345.23 560.286 345.115C559.515 344.916 558.558 344.658 557.659 344.518 557.456 344.44 557.246 344.387 557.031 344.36L556.603 344.36 556.603 344.489C556.751 344.605 556.909 344.71 557.074 344.803L557.074 344.869C557.21 345.266 557.49 345.597 557.859 345.797L558.887 345.939C560.022 345.965 561.13 346.29 562.099 346.882L562.327 347.01 562.399 347.01 562.056 347.182C561.96 347.227 561.873 347.29 561.799 347.367L561.684 347.367C561.2 347.284 560.723 347.164 560.257 347.01 559.874 346.602 559.236 346.57 558.815 346.938L558.644 346.938C558.496 346.89 558.342 346.861 558.187 346.853L557.244 346.539C556.294 346.271 555.382 345.883 554.531 345.382 554.337 345.22 554.16 345.038 554.003 344.839 554.003 344.839 553.932 344.754 553.904 344.754L553.904 344.754 553.904 344.654C553.783 344.735 553.672 344.831 553.575 344.94 553.518 345.738 553.786 346.526 554.317 347.124 554.63 347.246 554.955 347.332 555.288 347.381 555.915 347.448 556.512 347.685 557.015 348.066L557.172 348.066 557.03 348.265C556.833 348.51 556.614 348.734 556.373 348.936L556.245 348.979C556.172 349.033 556.105 349.095 556.046 349.164L555.689 349.164C555.299 349.131 554.923 349.004 554.593 348.792 554.486 348.726 554.371 348.673 554.25 348.635L554.25 348.755C554.724 349.559 555.343 350.269 556.076 350.847L556.076 350.946C556.166 351.001 556.269 351.03 556.374 351.032L556.374 351.032C556.945 351.032 557.559 350.235 558.016 349.604L558.302 349.248 558.417 349.248C558.845 348.919 558.874 348.905 558.859 348.891L559.102 348.977C559.43 349.08 559.743 349.229 560.03 349.419 560.372 349.262 560.727 348.921 560.686 348.548L560.529 348.363 559.9 347.806 559.8 347.806 559.8 347.621C559.88 347.457 559.991 347.311 560.129 347.193L560.272 347.193C560.885 347.335 561.428 347.506 562.099 347.707L562.685 347.906 562.827 348.005C563.085 348.257 563.424 348.408 563.783 348.434 563.854 348.445 563.927 348.445 563.998 348.434 564.285 348.171 564.526 347.862 564.711 347.52L564.711 347.52C564.596 347.349 564.54 347.306 564.526 347.306L564.625 347.178C564.675 347.126 564.733 347.082 564.797 347.049 565.793 346.735 566.867 346.336 567.652 346.064 568.137 345.765 568.18 345.735 568.008 345.293 567.978 345.195 567.94 345.099 567.894 345.007M564.039 345.593 564.197 345.45C564.411 345.251 564.511 345.151 564.54 345.052 564.568 344.952 564.54 344.966 564.382 344.894L564.225 344.894C564.092 344.898 563.966 344.839 563.882 344.737L563.882 344.394 563.882 344.394 564.096 344.322C564.389 344.253 564.672 344.148 564.938 344.009L564.938 343.909 565.081 344.037C565.454 344.332 565.716 344.745 565.823 345.208L565.823 345.294C565.456 345.688 564.932 345.897 564.395 345.865L564.267 345.865 564.267 345.65 564.167 345.65Z" fill="#003F88"/><path d="M559.887 343.753C559.666 343.758 559.45 343.688 559.273 343.554 559.248 343.06 559.423 342.576 559.759 342.212 559.844 342.084 559.916 341.998 559.973 341.898L559.973 341.799 560.059 341.641C560.165 341.437 560.261 341.227 560.344 341.013 560.384 340.905 560.417 340.796 560.444 340.684 560.601 340.07 560.715 339.688 561.03 339.588 561.345 339.489 561.386 339.66 561.444 339.746 561.502 339.831 561.444 339.96 561.444 340.188L561.444 340.274C561.46 340.373 561.46 340.474 561.444 340.573 561.494 340.928 561.494 341.288 561.444 341.643L561.444 341.843C561.42 341.964 561.386 342.083 561.345 342.199 561.243 342.652 561.032 343.074 560.731 343.427L560.589 343.541 560.503 343.541C560.306 343.679 560.072 343.753 559.831 343.755Z" fill="#003F88"/><path d="M559.888 343.74 559.888 343.74C560.122 343.727 560.349 343.653 560.545 343.525L560.63 343.525 560.773 343.411C561.072 343.064 561.278 342.646 561.371 342.197 561.419 342.083 561.453 341.963 561.47 341.841L561.47 341.698C561.528 341.344 561.528 340.982 561.47 340.627L561.47 340.314 561.47 340.314 561.47 340.228C561.513 340.088 561.513 339.939 561.47 339.799 561.47 339.714 561.299 339.685 561.072 339.642 560.845 339.599 560.657 340.127 560.515 340.698 560.528 340.83 560.492 340.962 560.415 341.07 560.302 341.267 560.202 341.472 560.116 341.683L560.031 341.855 560.031 341.954C559.97 342.062 559.903 342.167 559.831 342.268 559.574 342.64 559.218 343.139 559.333 343.581 559.507 343.708 559.716 343.777 559.931 343.78" fill="#003F88"/><path d="M557.674 343.268C557.493 343.242 557.321 343.168 557.176 343.054 556.848 342.298 558.033 341.46 558.173 341.356 558.35 341.394 558.492 341.525 558.544 341.698 558.665 342.119 558.586 342.571 558.33 342.926 557.959 343.169 557.817 343.268 557.674 343.268Z" fill="#003F88"/><path d="M557.674 343.184 557.674 343.184C557.803 343.184 557.96 343.084 558.303 342.841 558.559 342.492 558.643 342.046 558.531 341.628 558.476 341.47 558.348 341.348 558.189 341.299 558.046 341.398 556.875 342.241 557.192 342.969 557.332 343.082 557.5 343.156 557.677 343.184" fill="#003F88"/></g></svg>